<?xml version="1.0" standalone="no"?>
<svg xmlns:xlink="http://www.w3.org/1999/xlink" xmlns="http://www.w3.org/2000/svg" height="16" width="16" viewBox="0 0 24 24" fill="currentColor" aria-hidden="true" class="Icon___StyledSvg-sc-1f0gmd8-0 ioYoOZ" data-testid="logoAutodeskAcc" id="accicon"><path d="M6.64,7.71a8.22,8.22,0,0,0,1-.13c.66-.13,1.31-.28,2-.42a2.64,2.64,0,0,0,1.59-1c.32-.42.63-.86,1-1.28a7.48,7.48,0,0,1,1.44-1.48c.38-.28,1.4-.87,1.47-.91l-.07,0a10,10,0,0,0-10.57,3c.14.19,1,1.51,1.35,1.84a1,1,0,0,0,.88.39M2.28,10.47A2.94,2.94,0,0,1,3.76,9.21c.23-.09.47-.16.7-.26A.9.9,0,0,0,5,8.11a.87.87,0,0,0-.2-.56l-.67-.86-.27-.34c-.05-.06-.12,0-.18,0a10,10,0,0,0-1.64,4.4l.13-.2.08-.12m.78,5c.25.2.38.2.57-.05s.18-.27.28-.4a11.91,11.91,0,0,1,1.14-1.41c.31-.31.61-.62.91-.94A1.83,1.83,0,0,0,6.47,11a1.47,1.47,0,0,0-.65-1,1.84,1.84,0,0,0-1.3-.22,3.1,3.1,0,0,0-1,.41,3.4,3.4,0,0,0-.86.74A2.41,2.41,0,0,0,2,12.25a10,10,0,0,0,.12,1.33,3.51,3.51,0,0,0,.94,1.91m15.53,3.45L18,18.68a1.1,1.1,0,0,0-.87,0,3.4,3.4,0,0,0-.63.38l-.33.24a8.86,8.86,0,0,1-5.29,1.61,9.13,9.13,0,0,1-7.69-4.75l-.27-.44c-.06-.11-.16-.06-.08.18A10,10,0,0,0,12,22h.54L13,22l.3,0,.15,0,.41-.07h0A10.37,10.37,0,0,0,16,21.15h0l.37-.18.14-.07.24-.12.37-.22a10.53,10.53,0,0,0,1.65-1.25c.05-.09,0-.22-.24-.36M15.19,3.21a6.41,6.41,0,0,0-1.23,1c-.22.22-.44.44-.64.68s-.41.51-.59.77a1.15,1.15,0,0,0-.24.71.51.51,0,0,0,.55.54,2.7,2.7,0,0,0,.68-.12c.43-.09.86-.2,1.3-.27a7.76,7.76,0,0,1,1.07-.11,6.54,6.54,0,0,1,1.4.06c.31,0,.62.12.93.2a4.73,4.73,0,0,1,1.16.48,8.21,8.21,0,0,1,1,.67l.21.17A.24.24,0,0,0,21,7.87a.49.49,0,0,0-.06-.41l0-.09c-.05-.11-.11-.21-.17-.32l0-.07a10.63,10.63,0,0,0-2.4-2.78,9.72,9.72,0,0,0-2.06-1.28,1.47,1.47,0,0,0-1,.29m4.56,9.45c.33-.75.64-1.5.95-2.25a2.2,2.2,0,0,0,.2-.72,1.42,1.42,0,0,0-.35-1A2.7,2.7,0,0,0,19.67,8a6,6,0,0,0-2.11-.58c-.3,0-.6,0-.89,0H16c-.35,0-.7,0-1,.08s-.74.11-1.1.19a4.88,4.88,0,0,0-1.72.7,6.57,6.57,0,0,0-1,.8l-.73.71a3.43,3.43,0,0,0-.69.83,1.72,1.72,0,0,0-.19,1.13,1.92,1.92,0,0,0,.48.94l.83.83a12.3,12.3,0,0,0,1.44,1.15A14,14,0,0,0,14.52,16q.64.28,1.32.54a2.46,2.46,0,0,0,.93.2H17a1.31,1.31,0,0,0,.72-.39,4.7,4.7,0,0,0,.72-1c.49-.86.93-1.74,1.33-2.64m-4.08,5-.26-.14-1.83-.83a13.33,13.33,0,0,1-2-1.13,24,24,0,0,1-1.93-1.53,6.61,6.61,0,0,0-.91-.69A1.62,1.62,0,0,0,8,13.14a1.41,1.41,0,0,0-.84.25,8.2,8.2,0,0,0-1.23,1,8.5,8.5,0,0,0-.66.68c-.24.28-.47.58-.69.88A1.09,1.09,0,0,0,4.48,17a4,4,0,0,0,.8,1.15,7.82,7.82,0,0,0,5.4,2.38A7.73,7.73,0,0,0,15.44,19a1.52,1.52,0,0,0,.44-.69.46.46,0,0,0-.21-.57M8.59,10.64a3.07,3.07,0,0,0,1.57-1.53c.75-1.44-.38-1.3-.67-1.25a10.17,10.17,0,0,0-1.35.31,1.37,1.37,0,0,0-1.05.91,1.73,1.73,0,0,0,.14,1.16,1,1,0,0,0,1.36.4m13.4,1c0-1.18-.3-1.17-.35-1.19s-.21,0-.36.4-.34.81-.54,1.26c-.28.64-.55,1.29-.85,1.92s-.74,1.45-1.1,2.18a3.69,3.69,0,0,0-.36,1,.51.51,0,0,0,.32.66l.68.34a.48.48,0,0,0,.48-.14s0,0,0,0A9.93,9.93,0,0,0,22,12v0c0-.1,0-.21,0-.31" fill="currentColor"/></svg>